<svg width="70" height="70" viewBox="0 0 70 70" fill="none" xmlns="http://www.w3.org/2000/svg">
<g opacity="0.8">
<rect x="0.5" y="0.5" width="69" height="69" rx="34.5" fill="#ECF1FE"/>
<rect x="0.5" y="0.5" width="69" height="69" rx="34.5" stroke="#004797"/>
<path d="M44.25 32.1551C41.94 28.5251 38.56 26.4351 35 26.4351C33.22 26.4351 31.49 26.9551 29.91 27.9251C28.33 28.9051 26.91 30.3351 25.75 32.1551C24.75 33.7251 24.75 36.2751 25.75 37.8451C28.06 41.4851 31.44 43.5651 35 43.5651C36.78 43.5651 38.51 43.0451 40.09 42.0751C41.67 41.0951 43.09 39.6651 44.25 37.8451C45.25 36.2851 45.25 33.7251 44.25 32.1551ZM35 39.0451C32.76 39.0451 30.96 37.2351 30.96 35.0051C30.96 32.7751 32.76 30.9651 35 30.9651C37.24 30.9651 39.04 32.7751 39.04 35.0051C39.04 37.2351 37.24 39.0451 35 39.0451Z" fill="#004797"/>
<path d="M34.85 32C33.28 32 32 33.28 32 34.86C32 36.43 33.28 37.71 34.85 37.71C36.42 37.71 37.71 36.43 37.71 34.86C37.71 33.29 36.42 32 34.85 32Z" fill="#316AAB"/>
</g>
</svg>
