<svg width="25" height="24" viewBox="0 0 25 24" fill="none" xmlns="http://www.w3.org/2000/svg">
<path opacity="0.4" d="M13.8008 3.25H7.80078C4.38078 3.25 3.05078 4.58 3.05078 8V16C3.05078 18.3 4.30078 20.75 7.80078 20.75H13.8008C17.2208 20.75 18.5508 19.42 18.5508 16V8C18.5508 4.58 17.2208 3.25 13.8008 3.25Z" fill="#004797"/>
<path d="M12.2999 11.3801C13.3382 11.3801 14.1799 10.5384 14.1799 9.50012C14.1799 8.46182 13.3382 7.62012 12.2999 7.62012C11.2616 7.62012 10.4199 8.46182 10.4199 9.50012C10.4199 10.5384 11.2616 11.3801 12.2999 11.3801Z" fill="#004797"/>
<path d="M22.4513 6.17011C22.0412 5.96011 21.1812 5.72011 20.0112 6.54011L18.5312 7.58011C18.5412 7.72011 18.5513 7.85011 18.5513 8.00011V16.0001C18.5513 16.1501 18.5312 16.2801 18.5312 16.4201L20.0112 17.4601C20.6312 17.9001 21.1712 18.0401 21.6012 18.0401C21.9712 18.0401 22.2613 17.9401 22.4513 17.8401C22.8612 17.6301 23.5513 17.0601 23.5513 15.6301V8.38011C23.5513 6.95011 22.8612 6.38011 22.4513 6.17011Z" fill="#004797"/>
</svg>
