<svg width="94" height="94" viewBox="0 0 94 94" fill="none" xmlns="http://www.w3.org/2000/svg">
<g opacity="0.8">
<rect x="0.671429" y="0.671429" width="92.6571" height="92.6571" rx="46.3286" fill="white"/>
<rect x="0.671429" y="0.671429" width="92.6571" height="92.6571" rx="46.3286" stroke="#004797" stroke-width="1.34286"/>
<path d="M48.5671 61.0999V57.9666H51.7004V61.0999H48.5671ZM45.4337 57.9666V50.1332H48.5671V57.9666H45.4337ZM57.9671 53.2666V46.9999H61.1004V53.2666H57.9671ZM54.8337 46.9999V43.8666H57.9671V46.9999H54.8337ZM36.0337 50.1332V46.9999H39.1671V50.1332H36.0337ZM32.9004 46.9999V43.8666H36.0337V46.9999H32.9004ZM47.0004 36.0332V32.8999H50.1337V36.0332H47.0004ZM35.2504 39.9499H39.9504V35.2499H35.2504V39.9499ZM32.9004 42.2999V32.8999H42.3004V42.2999H32.9004ZM35.2504 58.7499H39.9504V54.0499H35.2504V58.7499ZM32.9004 61.0999V51.6999H42.3004V61.0999H32.9004ZM54.0504 39.9499H58.7504V35.2499H54.0504V39.9499ZM51.7004 42.2999V32.8999H61.1004V42.2999H51.7004ZM54.8337 61.0999V56.3999H51.7004V53.2666H57.9671V57.9666H61.1004V61.0999H54.8337ZM48.5671 50.1332V46.9999H54.8337V50.1332H48.5671ZM42.3004 50.1332V46.9999H39.1671V43.8666H48.5671V46.9999H45.4337V50.1332H42.3004ZM43.8671 42.2999V36.0332H47.0004V39.1666H50.1337V42.2999H43.8671ZM36.4254 38.7749V36.4249H38.7754V38.7749H36.4254ZM36.4254 57.5749V55.2249H38.7754V57.5749H36.4254ZM55.2254 38.7749V36.4249H57.5754V38.7749H55.2254Z" fill="#004797"/>
</g>
</svg>
