<svg width="430" height="366" viewBox="0 0 430 366" fill="none" xmlns="http://www.w3.org/2000/svg">
<g opacity="0.06">
<path d="M302.602 324.813C302.602 325.169 302.496 325.517 302.298 325.814C302.1 326.11 301.819 326.34 301.49 326.477C301.161 326.613 300.799 326.649 300.449 326.579C300.1 326.51 299.779 326.338 299.527 326.086C299.276 325.835 299.104 325.514 299.035 325.164C298.965 324.815 299.001 324.453 299.137 324.124C299.273 323.795 299.504 323.514 299.8 323.316C300.096 323.118 300.445 323.012 300.801 323.012C301.278 323.012 301.736 323.202 302.074 323.54C302.412 323.877 302.602 324.335 302.602 324.813ZM310.417 323.012C310.061 323.012 309.713 323.118 309.417 323.316C309.121 323.514 308.89 323.795 308.754 324.124C308.617 324.453 308.582 324.815 308.651 325.164C308.721 325.514 308.892 325.835 309.144 326.086C309.396 326.338 309.717 326.51 310.066 326.579C310.415 326.649 310.777 326.613 311.106 326.477C311.436 326.34 311.717 326.11 311.915 325.814C312.113 325.517 312.218 325.169 312.218 324.813C312.218 324.344 312.035 323.893 311.708 323.557C311.381 323.22 310.935 323.025 310.466 323.012H310.417ZM320.022 323.012C319.571 323.049 319.151 323.255 318.845 323.587C318.539 323.92 318.369 324.355 318.369 324.807C318.369 325.259 318.539 325.694 318.845 326.027C319.151 326.359 319.571 326.564 320.022 326.602C320.27 326.622 320.52 326.591 320.755 326.51C320.99 326.429 321.207 326.3 321.39 326.132C321.573 325.963 321.719 325.758 321.819 325.53C321.919 325.302 321.971 325.056 321.971 324.807C321.971 324.558 321.919 324.312 321.819 324.084C321.719 323.856 321.573 323.651 321.39 323.482C321.207 323.313 320.99 323.185 320.755 323.104C320.52 323.023 320.27 322.992 320.022 323.012ZM329.638 323.012C329.282 323.012 328.934 323.118 328.638 323.316C328.342 323.514 328.111 323.795 327.974 324.124C327.838 324.453 327.803 324.815 327.872 325.164C327.941 325.514 328.113 325.835 328.365 326.086C328.617 326.338 328.938 326.51 329.287 326.579C329.636 326.649 329.998 326.613 330.327 326.477C330.656 326.34 330.938 326.11 331.136 325.814C331.333 325.517 331.439 325.169 331.439 324.813C331.439 324.344 331.256 323.893 330.929 323.557C330.602 323.22 330.156 323.025 329.687 323.012H329.638ZM339.353 326.602C339.709 326.602 340.058 326.496 340.355 326.297C340.651 326.099 340.882 325.817 341.018 325.487C341.154 325.157 341.189 324.795 341.118 324.445C341.048 324.095 340.875 323.774 340.622 323.523C340.369 323.272 340.047 323.101 339.697 323.033C339.346 322.965 338.984 323.002 338.655 323.141C338.326 323.279 338.046 323.511 337.849 323.809C337.653 324.107 337.55 324.456 337.552 324.813C337.555 325.289 337.746 325.743 338.084 326.078C338.421 326.414 338.877 326.602 339.353 326.602ZM300.85 332.617C300.492 332.607 300.139 332.704 299.836 332.896C299.534 333.088 299.295 333.366 299.152 333.694C299.008 334.022 298.965 334.385 299.029 334.738C299.093 335.09 299.26 335.416 299.51 335.672C299.76 335.929 300.08 336.106 300.431 336.179C300.782 336.253 301.146 336.22 301.478 336.085C301.81 335.95 302.094 335.72 302.294 335.423C302.495 335.126 302.601 334.776 302.602 334.417C302.602 333.948 302.419 333.497 302.092 333.161C301.764 332.825 301.319 332.629 300.85 332.617ZM310.466 332.617C310.11 332.617 309.762 332.722 309.466 332.92C309.17 333.118 308.939 333.399 308.803 333.728C308.666 334.057 308.631 334.419 308.7 334.769C308.77 335.118 308.941 335.439 309.193 335.691C309.445 335.943 309.766 336.114 310.115 336.184C310.464 336.253 310.826 336.217 311.155 336.081C311.485 335.945 311.766 335.714 311.964 335.418C312.162 335.122 312.267 334.773 312.267 334.417C312.267 333.94 312.077 333.482 311.74 333.144C311.402 332.806 310.944 332.617 310.466 332.617ZM320.071 332.617C319.593 332.617 319.135 332.806 318.797 333.144C318.46 333.482 318.27 333.94 318.27 334.417C318.27 334.895 318.46 335.353 318.797 335.691C319.135 336.028 319.593 336.218 320.071 336.218C320.548 336.218 321.006 336.028 321.344 335.691C321.682 335.353 321.871 334.895 321.871 334.417C321.871 333.94 321.682 333.482 321.344 333.144C321.006 332.806 320.548 332.617 320.071 332.617ZM329.687 332.617C329.331 332.617 328.983 332.722 328.687 332.92C328.391 333.118 328.16 333.399 328.023 333.728C327.887 334.057 327.852 334.419 327.921 334.769C327.99 335.118 328.162 335.439 328.414 335.691C328.666 335.943 328.987 336.114 329.336 336.184C329.685 336.253 330.047 336.217 330.376 336.081C330.705 335.945 330.987 335.714 331.185 335.418C331.382 335.122 331.488 334.773 331.488 334.417C331.488 333.94 331.298 333.482 330.961 333.144C330.623 332.806 330.165 332.617 329.687 332.617ZM339.304 332.617C338.948 332.617 338.599 332.722 338.303 332.92C338.007 333.118 337.776 333.399 337.64 333.728C337.504 334.057 337.468 334.419 337.538 334.769C337.607 335.118 337.779 335.439 338.03 335.691C338.282 335.943 338.603 336.114 338.952 336.184C339.302 336.253 339.664 336.217 339.993 336.081C340.322 335.945 340.603 335.714 340.801 335.418C340.999 335.122 341.105 334.773 341.105 334.417C341.105 333.948 340.922 333.497 340.595 333.161C340.267 332.825 339.822 332.629 339.353 332.617H339.304ZM300.85 342.233C300.492 342.223 300.139 342.321 299.836 342.512C299.534 342.704 299.295 342.982 299.152 343.31C299.008 343.638 298.965 344.002 299.029 344.354C299.093 344.707 299.26 345.032 299.51 345.289C299.76 345.546 300.08 345.722 300.431 345.796C300.782 345.869 301.146 345.837 301.478 345.702C301.81 345.567 302.094 345.336 302.294 345.039C302.495 344.742 302.601 344.392 302.602 344.034C302.602 343.565 302.419 343.114 302.092 342.778C301.764 342.441 301.319 342.246 300.85 342.233ZM310.466 342.233C310.11 342.233 309.762 342.339 309.466 342.537C309.17 342.734 308.939 343.016 308.803 343.345C308.666 343.674 308.631 344.036 308.7 344.385C308.77 344.735 308.941 345.055 309.193 345.307C309.445 345.559 309.766 345.731 310.115 345.8C310.464 345.87 310.826 345.834 311.155 345.698C311.485 345.561 311.766 345.33 311.964 345.034C312.162 344.738 312.267 344.39 312.267 344.034C312.267 343.797 312.221 343.563 312.13 343.345C312.04 343.126 311.907 342.928 311.74 342.761C311.573 342.593 311.374 342.461 311.155 342.37C310.937 342.28 310.703 342.233 310.466 342.233ZM320.071 342.233C319.62 342.27 319.2 342.476 318.894 342.808C318.588 343.14 318.418 343.576 318.418 344.028C318.418 344.48 318.588 344.915 318.894 345.248C319.2 345.58 319.62 345.785 320.071 345.822C320.319 345.843 320.569 345.812 320.804 345.731C321.039 345.65 321.256 345.521 321.439 345.353C321.622 345.184 321.768 344.979 321.868 344.751C321.968 344.523 322.02 344.277 322.02 344.028C322.02 343.779 321.968 343.532 321.868 343.304C321.768 343.076 321.622 342.872 321.439 342.703C321.256 342.534 321.039 342.405 320.804 342.325C320.569 342.244 320.319 342.213 320.071 342.233ZM329.687 342.233C329.331 342.233 328.983 342.339 328.687 342.537C328.391 342.734 328.16 343.016 328.023 343.345C327.887 343.674 327.852 344.036 327.921 344.385C327.99 344.735 328.162 345.055 328.414 345.307C328.666 345.559 328.987 345.731 329.336 345.8C329.685 345.87 330.047 345.834 330.376 345.698C330.705 345.561 330.987 345.33 331.185 345.034C331.382 344.738 331.488 344.39 331.488 344.034C331.488 343.797 331.441 343.563 331.351 343.345C331.26 343.126 331.128 342.928 330.961 342.761C330.793 342.593 330.595 342.461 330.376 342.37C330.158 342.28 329.924 342.233 329.687 342.233ZM339.304 342.233C338.948 342.233 338.599 342.339 338.303 342.537C338.007 342.734 337.776 343.016 337.64 343.345C337.504 343.674 337.468 344.036 337.538 344.385C337.607 344.735 337.779 345.055 338.03 345.307C338.282 345.559 338.603 345.731 338.952 345.8C339.302 345.87 339.664 345.834 339.993 345.698C340.322 345.561 340.603 345.33 340.801 345.034C340.999 344.738 341.105 344.39 341.105 344.034C341.105 343.565 340.922 343.114 340.595 342.778C340.267 342.441 339.822 342.246 339.353 342.233H339.304ZM300.85 351.85C300.491 351.84 300.138 351.937 299.835 352.13C299.532 352.322 299.294 352.601 299.15 352.93C299.007 353.258 298.965 353.622 299.03 353.975C299.095 354.328 299.263 354.654 299.514 354.91C299.765 355.166 300.087 355.342 300.439 355.414C300.79 355.486 301.155 355.452 301.487 355.315C301.818 355.178 302.102 354.946 302.3 354.647C302.499 354.348 302.604 353.997 302.602 353.638C302.599 353.171 302.414 352.723 302.087 352.39C301.76 352.056 301.317 351.862 300.85 351.85ZM310.466 351.85C310.11 351.85 309.762 351.955 309.466 352.153C309.17 352.351 308.939 352.632 308.803 352.961C308.666 353.29 308.631 353.652 308.7 354.002C308.77 354.351 308.941 354.672 309.193 354.924C309.445 355.176 309.766 355.347 310.115 355.417C310.464 355.486 310.826 355.45 311.155 355.314C311.485 355.178 311.766 354.947 311.964 354.651C312.162 354.355 312.267 354.007 312.267 353.65C312.267 353.173 312.077 352.715 311.74 352.377C311.402 352.039 310.944 351.85 310.466 351.85ZM320.071 351.85C319.593 351.85 319.135 352.039 318.797 352.377C318.46 352.715 318.27 353.173 318.27 353.65C318.27 354.128 318.46 354.586 318.797 354.924C319.135 355.262 319.593 355.451 320.071 355.451C320.548 355.451 321.006 355.262 321.344 354.924C321.682 354.586 321.871 354.128 321.871 353.65C321.871 353.173 321.682 352.715 321.344 352.377C321.006 352.039 320.548 351.85 320.071 351.85ZM329.687 351.85C329.331 351.85 328.983 351.955 328.687 352.153C328.391 352.351 328.16 352.632 328.023 352.961C327.887 353.29 327.852 353.652 327.921 354.002C327.99 354.351 328.162 354.672 328.414 354.924C328.666 355.176 328.987 355.347 329.336 355.417C329.685 355.486 330.047 355.45 330.376 355.314C330.705 355.178 330.987 354.947 331.185 354.651C331.382 354.355 331.488 354.007 331.488 353.65C331.488 353.173 331.298 352.715 330.961 352.377C330.623 352.039 330.165 351.85 329.687 351.85ZM339.353 351.85C338.997 351.85 338.648 351.955 338.352 352.153C338.056 352.351 337.825 352.632 337.689 352.961C337.553 353.29 337.517 353.652 337.587 354.002C337.656 354.351 337.828 354.672 338.079 354.924C338.331 355.176 338.652 355.347 339.001 355.417C339.351 355.486 339.713 355.45 340.042 355.314C340.371 355.178 340.652 354.947 340.85 354.651C341.048 354.355 341.154 354.007 341.154 353.65C341.154 353.173 340.964 352.715 340.626 352.377C340.288 352.039 339.83 351.85 339.353 351.85ZM300.899 361.466C300.539 361.447 300.181 361.536 299.872 361.722C299.563 361.908 299.317 362.182 299.166 362.51C299.015 362.838 298.965 363.203 299.024 363.559C299.083 363.915 299.248 364.245 299.497 364.506C299.745 364.767 300.067 364.948 300.419 365.024C300.772 365.101 301.139 365.069 301.474 364.935C301.809 364.8 302.095 364.568 302.296 364.268C302.497 363.969 302.604 363.615 302.602 363.255C302.602 362.786 302.419 362.335 302.092 361.998C301.764 361.662 301.319 361.467 300.85 361.454L300.899 361.466ZM310.515 361.466C310.159 361.466 309.811 361.572 309.515 361.77C309.219 361.968 308.988 362.249 308.852 362.578C308.715 362.907 308.68 363.269 308.749 363.618C308.819 363.968 308.99 364.289 309.242 364.54C309.494 364.792 309.815 364.964 310.164 365.033C310.513 365.103 310.875 365.067 311.205 364.931C311.534 364.794 311.815 364.564 312.013 364.267C312.211 363.971 312.316 363.623 312.316 363.267C312.318 363.025 312.271 362.786 312.178 362.563C312.085 362.339 311.949 362.137 311.776 361.968C311.603 361.799 311.398 361.666 311.173 361.578C310.948 361.489 310.708 361.447 310.466 361.454L310.515 361.466ZM320.12 361.466C319.642 361.466 319.184 361.656 318.846 361.994C318.509 362.331 318.319 362.789 318.319 363.267C318.319 363.745 318.509 364.203 318.846 364.54C319.184 364.878 319.642 365.068 320.12 365.068C320.597 365.068 321.055 364.878 321.393 364.54C321.731 364.203 321.92 363.745 321.92 363.267C321.92 362.789 321.731 362.331 321.393 361.994C321.055 361.656 320.597 361.466 320.12 361.466ZM329.736 361.466C329.38 361.466 329.032 361.572 328.736 361.77C328.44 361.968 328.209 362.249 328.072 362.578C327.936 362.907 327.901 363.269 327.97 363.618C328.039 363.968 328.211 364.289 328.463 364.54C328.715 364.792 329.036 364.964 329.385 365.033C329.734 365.103 330.096 365.067 330.425 364.931C330.754 364.794 331.036 364.564 331.234 364.267C331.431 363.971 331.537 363.623 331.537 363.267C331.539 363.025 331.492 362.786 331.399 362.563C331.306 362.339 331.169 362.137 330.997 361.968C330.824 361.799 330.619 361.666 330.394 361.578C330.169 361.489 329.929 361.447 329.687 361.454L329.736 361.466ZM339.353 361.466C338.997 361.466 338.648 361.572 338.352 361.77C338.056 361.968 337.825 362.249 337.689 362.578C337.553 362.907 337.517 363.269 337.587 363.618C337.656 363.968 337.828 364.289 338.079 364.54C338.331 364.792 338.652 364.964 339.001 365.033C339.351 365.103 339.713 365.067 340.042 364.931C340.371 364.794 340.652 364.564 340.85 364.267C341.048 363.971 341.154 363.623 341.154 363.267C341.155 363.03 341.11 362.794 341.02 362.574C340.93 362.354 340.798 362.154 340.63 361.986C340.463 361.817 340.264 361.683 340.045 361.592C339.825 361.501 339.59 361.454 339.353 361.454V361.466Z" fill="#030947"/>
<path d="M83.7432 211.303L96.8511 201.331L97.4391 202.102L85.0907 211.499L94.3398 223.749L93.568 224.325L83.7432 211.303ZM85.5685 223.222L86.3403 222.646L77.079 210.396L89.4274 201L88.8516 200.24L75.7437 210.212L85.5685 223.222ZM77.569 222.095L78.3285 221.519L69.0795 209.269L81.4279 199.873L80.8521 199.113L67.7319 209.085L77.569 222.095ZM69.5327 220.98L70.3045 220.392L61.0555 208.142L73.4039 198.758L72.8158 197.986L59.7324 207.946L69.5327 220.98Z" fill="url(#paint0_linear_5223_4164)"/>
<path d="M307.693 90.8942C307.693 90.2785 307.875 89.6765 308.216 89.1639C308.557 88.6513 309.042 88.2509 309.61 88.0131C310.178 87.7753 310.804 87.7107 311.409 87.8273C312.013 87.9439 312.57 88.2366 313.009 88.6686C313.447 89.1006 313.749 89.6526 313.875 90.2553C314.001 90.858 313.946 91.4845 313.717 92.0561C313.488 92.6277 313.095 93.1189 312.588 93.4679C312.081 93.817 311.482 94.0084 310.866 94.0181C310.452 94.0229 310.041 93.9458 309.657 93.7911C309.273 93.6365 308.924 93.4073 308.629 93.1169C308.334 92.8265 308.099 92.4806 307.939 92.0991C307.778 91.7176 307.695 91.3081 307.693 90.8942ZM294.218 94.2508C294.835 94.2386 295.435 94.0439 295.941 93.6912C296.448 93.3384 296.838 92.8435 297.064 92.2689C297.289 91.6943 297.34 91.0658 297.208 90.4627C297.077 89.8595 296.77 89.3089 296.326 88.8801C295.882 88.4514 295.32 88.1639 294.713 88.0538C294.106 87.9437 293.479 88.0161 292.913 88.2617C292.347 88.5073 291.866 88.9152 291.531 89.4339C291.196 89.9526 291.023 90.5588 291.033 91.176C291.049 92.0035 291.391 92.791 291.986 93.367C292.58 93.943 293.378 94.2607 294.205 94.2508H294.218ZM277.533 94.5448C278.15 94.5351 278.751 94.3423 279.26 93.9911C279.768 93.6398 280.16 93.1457 280.388 92.5712C280.615 91.9968 280.667 91.3678 280.537 90.7639C280.407 90.1599 280.101 89.6081 279.657 89.1781C279.214 88.7482 278.652 88.4594 278.045 88.3484C277.437 88.2374 276.81 88.309 276.243 88.5543C275.676 88.7997 275.194 89.2076 274.859 89.7266C274.524 90.2455 274.35 90.8522 274.36 91.47C274.376 92.2953 274.717 93.081 275.308 93.6567C275.9 94.2323 276.695 94.5514 277.52 94.5448H277.533ZM260.86 94.8266C261.478 94.8168 262.08 94.6237 262.588 94.2718C263.096 93.92 263.489 93.4251 263.716 92.85C263.943 92.2748 263.994 91.6453 263.863 91.041C263.732 90.4367 263.425 89.885 262.98 89.4555C262.535 89.0261 261.973 88.7384 261.364 88.6288C260.756 88.5191 260.128 88.5926 259.561 88.8398C258.995 89.087 258.514 89.4968 258.18 90.0174C257.847 90.5379 257.675 91.1458 257.687 91.764C257.692 92.1731 257.777 92.5772 257.939 92.953C258.101 93.3289 258.336 93.6689 258.629 93.9537C258.923 94.2384 259.27 94.4621 259.651 94.6119C260.032 94.7617 260.439 94.8347 260.848 94.8266H260.86ZM244.077 88.8729C243.459 88.8827 242.858 89.0754 242.35 89.4267C241.842 89.778 241.449 90.2721 241.222 90.8465C240.994 91.4209 240.942 92.0499 241.072 92.6539C241.202 93.2578 241.509 93.8097 241.952 94.2396C242.396 94.6696 242.957 94.9583 243.565 95.0694C244.173 95.1804 244.8 95.1087 245.367 94.8634C245.934 94.6181 246.415 94.2101 246.75 93.6912C247.086 93.1722 247.259 92.5655 247.25 91.9477C247.234 91.1203 246.891 90.3327 246.297 89.7567C245.702 89.1807 244.904 88.863 244.077 88.8729ZM310.584 77.284C311.202 77.2742 311.804 77.0812 312.312 76.7293C312.821 76.3774 313.213 75.8826 313.44 75.3074C313.667 74.7323 313.718 74.1027 313.587 73.4985C313.456 72.8942 313.149 72.3424 312.704 71.913C312.259 71.4836 311.697 71.1958 311.088 71.0862C310.48 70.9766 309.852 71.05 309.286 71.2972C308.719 71.5444 308.238 71.9543 307.905 72.4748C307.571 72.9954 307.399 73.6032 307.411 74.2214C307.427 75.0478 307.77 75.8342 308.365 76.4082C308.96 76.9822 309.758 77.2972 310.584 77.284ZM293.911 77.578C294.529 77.5683 295.13 77.3756 295.638 77.0243C296.146 76.673 296.539 76.1789 296.767 75.6044C296.994 75.03 297.046 74.4011 296.916 73.7971C296.786 73.1931 296.48 72.6413 296.036 72.2113C295.592 71.7814 295.031 71.4926 294.423 71.3816C293.816 71.2706 293.189 71.3422 292.622 71.5876C292.055 71.8329 291.573 72.2408 291.238 72.7598C290.903 73.2788 290.729 73.8855 290.739 74.5032C290.745 74.9134 290.832 75.3184 290.995 75.695C291.158 76.0715 291.393 76.4123 291.688 76.6979C291.983 76.9834 292.331 77.2081 292.712 77.3591C293.094 77.5101 293.501 77.5845 293.911 77.578ZM277.239 77.8721C277.856 77.8599 278.455 77.6651 278.962 77.3124C279.469 76.9597 279.859 76.4648 280.085 75.8902C280.31 75.3156 280.361 74.687 280.229 74.0839C280.098 73.4808 279.791 72.9301 279.347 72.5014C278.903 72.0726 278.341 71.7851 277.734 71.675C277.127 71.565 276.5 71.6373 275.934 71.8829C275.368 72.1286 274.887 72.5365 274.552 73.0551C274.217 73.5738 274.044 74.18 274.054 74.7972C274.06 75.2085 274.147 75.6145 274.311 75.9919C274.475 76.3692 274.711 76.7106 275.007 76.9963C275.303 77.282 275.653 77.5064 276.036 77.6567C276.419 77.807 276.827 77.8802 277.239 77.8721ZM260.566 78.1661C261.183 78.1539 261.783 77.9591 262.289 77.6064C262.796 77.2537 263.187 76.7588 263.412 76.1842C263.638 75.6096 263.688 74.981 263.556 74.3779C263.425 73.7748 263.118 73.2241 262.674 72.7954C262.23 72.3666 261.669 72.0791 261.061 71.969C260.454 71.859 259.827 71.9313 259.261 72.1769C258.695 72.4226 258.214 72.8305 257.879 73.3491C257.545 73.8678 257.371 74.474 257.381 75.0912C257.397 75.9209 257.741 76.7103 258.338 77.2866C258.935 77.8629 259.736 78.1792 260.566 78.1661ZM243.893 78.4478C244.511 78.4356 245.111 78.2405 245.618 77.8872C246.124 77.5339 246.515 77.0383 246.74 76.4629C246.965 75.8876 247.015 75.2585 246.882 74.6551C246.75 74.0516 246.442 73.501 245.996 73.0728C245.551 72.6446 244.989 72.3581 244.381 72.2494C243.772 72.1408 243.146 72.2149 242.58 72.4624C242.014 72.7099 241.534 73.1197 241.201 73.6399C240.867 74.1602 240.696 74.7676 240.708 75.3852C240.716 75.7955 240.805 76.2001 240.969 76.5761C241.133 76.9521 241.37 77.292 241.666 77.5764C241.962 77.8608 242.311 78.0841 242.693 78.2336C243.075 78.3832 243.483 78.4559 243.893 78.4478ZM310.29 60.6113C310.908 60.6014 311.51 60.4084 312.018 60.0565C312.527 59.7046 312.919 59.2098 313.146 58.6347C313.373 58.0595 313.424 57.43 313.293 56.8257C313.162 56.2214 312.855 55.6696 312.41 55.2402C311.965 54.8108 311.403 54.5231 310.794 54.4134C310.186 54.3038 309.558 54.3773 308.992 54.6245C308.425 54.8717 307.944 55.2815 307.611 55.802C307.277 56.3226 307.105 56.9305 307.117 57.5487C307.124 57.9584 307.211 58.3627 307.374 58.7386C307.537 59.1145 307.773 59.4545 308.068 59.7391C308.362 60.0236 308.71 60.2472 309.092 60.3968C309.473 60.5465 309.88 60.6194 310.29 60.6113ZM293.617 60.942C294.236 60.9322 294.837 60.7391 295.345 60.3873C295.854 60.0354 296.246 59.5406 296.473 58.9654C296.7 58.3903 296.752 57.7607 296.621 57.1564C296.49 56.5522 296.182 56.0004 295.737 55.571C295.292 55.1415 294.73 54.8538 294.122 54.7442C293.513 54.6346 292.886 54.708 292.319 54.9552C291.752 55.2024 291.272 55.6122 290.938 56.1328C290.604 56.6534 290.432 57.2612 290.445 57.8794C290.461 58.7058 290.804 59.4921 291.398 60.0662C291.993 60.6402 292.791 60.9551 293.617 60.942ZM276.945 61.236C277.562 61.2239 278.161 61.0291 278.668 60.6764C279.175 60.3237 279.565 59.8287 279.791 59.2542C280.016 58.6796 280.067 58.051 279.935 57.4479C279.804 56.8448 279.497 56.2941 279.053 55.8653C278.609 55.4366 278.047 55.1491 277.44 55.039C276.833 54.9289 276.206 55.0013 275.64 55.2469C275.074 55.4925 274.593 55.9004 274.258 56.4191C273.923 56.9378 273.75 57.544 273.76 58.1612C273.782 58.9854 274.129 59.7674 274.726 60.3365C275.323 60.9056 276.12 61.2158 276.945 61.1993V61.236ZM260.272 61.5178C260.89 61.508 261.491 61.3149 262 60.963C262.508 60.6112 262.901 60.1163 263.128 59.5412C263.355 58.9661 263.406 58.3365 263.275 57.7322C263.144 57.1279 262.837 56.5762 262.392 56.1467C261.947 55.7173 261.385 55.4296 260.776 55.32C260.167 55.2104 259.54 55.2838 258.973 55.531C258.407 55.7782 257.926 56.188 257.592 56.7086C257.259 57.2291 257.087 57.837 257.099 58.4552C257.125 59.2751 257.472 60.0521 258.065 60.6182C258.659 61.1844 259.452 61.4943 260.272 61.481V61.5178ZM243.599 61.8118C244.217 61.802 244.819 61.6089 245.327 61.257C245.836 60.9052 246.228 60.4103 246.455 59.8352C246.682 59.2601 246.733 58.6305 246.602 58.0262C246.471 57.422 246.164 56.8702 245.719 56.4407C245.274 56.0113 244.712 55.7236 244.103 55.614C243.495 55.5044 242.867 55.5778 242.301 55.825C241.734 56.0722 241.253 56.482 240.92 57.0026C240.586 57.5231 240.414 58.131 240.426 58.7492C240.449 59.5702 240.795 60.349 241.389 60.9159C241.984 61.4827 242.778 61.7915 243.599 61.775V61.8118ZM309.996 43.9752C310.406 43.9705 310.811 43.8844 311.188 43.7219C311.565 43.5594 311.905 43.3237 312.19 43.0286C312.475 42.7334 312.699 42.3847 312.848 42.0026C312.997 41.6204 313.068 41.2125 313.059 40.8024C313.06 40.387 312.979 39.9754 312.82 39.5917C312.661 39.2081 312.426 38.8601 312.131 38.568C311.835 38.276 311.485 38.0458 311.099 37.891C310.714 37.7362 310.301 37.6598 309.886 37.6663C309.058 37.6856 308.272 38.0312 307.698 38.6279C307.125 39.2245 306.81 40.0238 306.823 40.8514C306.825 41.2636 306.909 41.6714 307.07 42.0509C307.231 42.4304 307.466 42.7739 307.761 43.0614C308.057 43.3489 308.407 43.5745 308.79 43.7251C309.174 43.8757 309.584 43.9483 309.996 43.9385V43.9752ZM293.323 44.2692C293.942 44.2594 294.543 44.0664 295.051 43.7145C295.56 43.3626 295.952 42.8678 296.179 42.2927C296.406 41.7175 296.458 41.0879 296.327 40.4837C296.196 39.8794 295.888 39.3276 295.443 38.8982C294.998 38.4688 294.436 38.181 293.828 38.0714C293.219 37.9618 292.592 38.0353 292.025 38.2824C291.458 38.5296 290.977 38.9395 290.644 39.46C290.31 39.9806 290.138 40.5885 290.151 41.2067C290.179 42.0255 290.527 42.8006 291.12 43.3661C291.713 43.9316 292.504 44.2426 293.323 44.2325V44.2692ZM276.651 44.5633C277.268 44.5535 277.869 44.3608 278.377 44.0095C278.886 43.6582 279.278 43.1641 279.506 42.5897C279.733 42.0152 279.785 41.3863 279.655 40.7823C279.525 40.1783 279.219 39.6265 278.775 39.1965C278.332 38.7666 277.77 38.4778 277.163 38.3668C276.555 38.2558 275.928 38.3275 275.361 38.5728C274.794 38.8181 274.312 39.226 273.977 39.745C273.642 40.264 273.468 40.8707 273.478 41.4884C273.5 42.3105 273.846 43.0906 274.44 43.6593C275.034 44.2281 275.828 44.5397 276.651 44.5265V44.5633ZM259.978 44.845C260.395 44.8469 260.809 44.7645 261.194 44.6026C261.579 44.4407 261.927 44.2028 262.217 43.903C262.508 43.6033 262.735 43.2479 262.885 42.8582C263.035 42.4686 263.104 42.0526 263.089 41.6354C263.107 41.2098 263.038 40.7849 262.886 40.387C262.734 39.9891 262.502 39.6265 262.204 39.3216C261.907 39.0166 261.55 38.7757 261.156 38.6138C260.762 38.4518 260.339 38.3721 259.913 38.3796C259.487 38.3871 259.067 38.4817 258.679 38.6575C258.291 38.8334 257.943 39.0867 257.657 39.402C257.37 39.7173 257.151 40.0878 257.013 40.4909C256.875 40.8939 256.821 41.3209 256.854 41.7457C256.864 42.5655 257.198 43.3482 257.783 43.9222C258.369 44.4962 259.158 44.8148 259.978 44.8083V44.845ZM243.305 45.139C243.715 45.1327 244.119 45.0454 244.495 44.8824C244.871 44.7193 245.211 44.4836 245.495 44.1888C245.78 43.894 246.004 43.5459 246.153 43.1645C246.303 42.7831 246.376 42.3758 246.368 41.9662C246.358 41.3479 246.165 40.7465 245.813 40.2381C245.461 39.7296 244.966 39.3371 244.391 39.1101C243.816 38.8831 243.186 38.8318 242.582 38.9629C241.978 39.094 241.426 39.4014 240.997 39.8463C240.567 40.2912 240.279 40.8535 240.17 41.462C240.06 42.0705 240.134 42.6979 240.381 43.2646C240.628 43.8314 241.038 44.312 241.558 44.6457C242.079 44.9794 242.687 45.1511 243.305 45.139ZM309.702 27.3147C310.532 27.2986 311.321 26.9544 311.898 26.3574C312.474 25.7604 312.79 24.9593 312.777 24.1296C312.769 23.7194 312.68 23.3147 312.516 22.9387C312.352 22.5628 312.115 22.2229 311.819 21.9385C311.523 21.6541 311.174 21.4307 310.792 21.2812C310.41 21.1317 310.002 21.0589 309.592 21.067C308.765 21.0831 307.979 21.4261 307.405 22.0208C306.831 22.6155 306.516 23.4134 306.529 24.2399C306.552 25.062 306.897 25.842 307.492 26.4108C308.086 26.9796 308.88 27.2912 309.702 27.278V27.3147ZM293.042 27.5965C293.868 27.5804 294.654 27.2374 295.228 26.6427C295.802 26.048 296.117 25.2501 296.104 24.4236C296.088 23.5961 295.746 22.8086 295.151 22.2326C294.557 21.6566 293.759 21.3389 292.931 21.3488C292.102 21.3649 291.312 21.7091 290.736 22.3061C290.16 22.9031 289.843 23.7042 289.857 24.5339C289.882 25.356 290.231 26.1348 290.827 26.7013C291.424 27.2678 292.219 27.5763 293.042 27.5597V27.5965ZM276.357 27.866C277.186 27.8499 277.976 27.5056 278.552 26.9086C279.128 26.3116 279.445 25.5106 279.431 24.6809C279.412 23.8555 279.068 23.0711 278.474 22.4977C277.88 21.9244 277.084 21.6084 276.259 21.6183C275.431 21.6344 274.644 21.977 274.068 22.5713C273.492 23.1656 273.174 23.9636 273.184 24.7911C273.19 25.2014 273.277 25.6063 273.44 25.9829C273.603 26.3595 273.839 26.7003 274.133 26.9858C274.428 27.2713 274.776 27.496 275.157 27.647C275.539 27.7981 275.946 27.8725 276.357 27.866ZM259.684 28.16C260.094 28.152 260.499 28.0633 260.875 27.8989C261.251 27.7345 261.591 27.4977 261.875 27.2019C262.159 26.9061 262.383 26.5572 262.532 26.1751C262.682 25.793 262.755 25.3851 262.746 24.9749C262.742 24.5647 262.656 24.1596 262.493 23.7829C262.331 23.4063 262.095 23.0657 261.8 22.7808C261.505 22.4959 261.156 22.2725 260.774 22.1234C260.392 21.9743 259.984 21.9025 259.574 21.9123C258.747 21.9284 257.961 22.2714 257.387 22.8661C256.813 23.4607 256.498 24.2587 256.511 25.0851C256.53 25.9105 256.874 26.6949 257.468 27.2683C258.062 27.8416 258.858 28.1576 259.684 28.1477V28.16ZM243.011 28.4418C243.421 28.4354 243.826 28.3482 244.203 28.1853C244.579 28.0224 244.92 27.7869 245.206 27.4923C245.491 27.1976 245.716 26.8496 245.867 26.4681C246.018 26.0866 246.092 25.6791 246.086 25.2689C246.07 24.4425 245.727 23.6562 245.132 23.0822C244.537 22.5081 243.739 22.1932 242.913 22.2063C242.498 22.2094 242.087 22.2954 241.705 22.4591C241.323 22.6229 240.978 22.8612 240.689 23.1601C240.401 23.459 240.174 23.8124 240.024 24.1998C239.874 24.5871 239.802 25.0006 239.814 25.4159C239.839 26.2391 240.19 27.0186 240.79 27.5835C241.389 28.1484 242.188 28.4526 243.011 28.4295V28.4418Z" fill="url(#paint1_linear_5223_4164)"/>
<path d="M19.3066 44.5891L23.1165 43.707L49.9939 160.171L46.1717 161.053L19.3066 44.5891ZM60.5659 149.759L37.1677 48.4234L33.3456 49.2932L56.7438 150.641L60.5659 149.759ZM71.1258 139.346L51.2189 53.1276L47.409 54.0096L67.3159 140.24L71.1258 139.346ZM81.7101 128.945L65.2946 57.893L61.4725 58.775L77.888 129.827L81.7101 128.945ZM92.2822 118.52L79.3335 62.5604L75.5237 63.3934L88.4601 119.451L92.2822 118.52ZM102.842 108.107L93.4092 67.2278L89.5871 68.1098L99.0322 108.989L102.842 108.107ZM113.426 97.6945L107.509 71.9687L103.687 72.8507L109.629 98.5765L113.426 97.6945ZM123.998 87.3062L121.548 76.6606L117.726 77.5426L120.176 88.1882L123.998 87.3062Z" fill="url(#paint2_linear_5223_4164)"/>
<path d="M324.439 12.1016L339.752 79.3194L392.552 22.6981L324.439 12.1016ZM333.431 20.5176L378.647 27.537L343.599 65.109L333.431 20.5176Z" fill="url(#paint3_linear_5223_4164)"/>
<path d="M210.645 215.813L221.352 62.8672L83.5352 130.085L210.645 215.813ZM209.187 212.702L86.9775 130.318L219.392 65.746L209.187 212.702ZM205.586 205.498L214.908 72.4592L95.0138 130.894L205.586 205.498ZM204.079 202.387L98.4806 131.126L212.973 75.2891L204.079 202.387ZM200.539 195.147L208.452 82.0023L106.517 131.69L200.539 195.147ZM199.032 192.023L109.959 131.923L206.517 84.8444L199.032 192.023ZM195.491 184.771L202.009 91.5698L118.008 132.486L195.491 184.771ZM193.985 181.659L121.45 132.731L200.085 94.3752L193.985 181.659ZM190.444 174.419L195.565 101.076L129.486 133.295L190.444 174.419ZM188.937 171.308L132.941 133.54L193.642 103.93L188.937 171.308ZM185.397 164.068L189.072 110.631L140.989 134.091L185.397 164.068ZM183.89 160.968L144.444 134.348L187.21 113.523L183.89 160.968ZM180.35 153.716L182.702 120.174L152.468 134.875L180.35 153.716ZM178.831 150.604L155.923 135.157L180.754 123.041L178.831 150.604Z" fill="url(#paint4_linear_5223_4164)"/>
<path d="M260.773 111.991L315.054 160.87L245.582 183.447L260.773 112.003M259.413 107.703L242.605 186.779L319.44 161.801L259.413 107.703Z" fill="url(#paint5_linear_5223_4164)"/>
<path d="M76.6133 261.41L118.265 277.397L111.282 233.332L76.6133 261.41Z" fill="url(#paint6_linear_5223_4164)"/>
<path d="M29.9767 42.2851L1.35979 60.8689L1.93556 60.9915L30.1114 42.6894L29.9767 42.2851ZM29.5602 41.0601L0.722773 59.7174L0 60.5259H0.183755L29.6949 41.4398L29.5602 41.0601ZM30.7852 44.8087L4.87565 61.6162L5.45142 61.7387L30.92 45.2007L30.7852 44.8087ZM30.332 43.5347L3.12385 61.2365L3.69962 61.359L30.5157 43.9389L30.332 43.5347ZM31.1405 45.9847L6.63971 61.9102L7.21548 62.0327L31.3242 46.4502L31.1405 45.9847ZM31.9613 48.4348L10.1556 62.731L10.7313 62.8535L32.1328 48.9493L31.9613 48.4348ZM31.557 47.2833L8.39151 62.3635L8.96728 62.486L31.7285 47.6998L31.557 47.2833ZM27.8819 36.0252L13.8674 45.164L13.1937 45.9112L12.7894 46.3645L28.0779 36.4417L27.8819 36.0252ZM27.4776 34.8001L17.0893 41.5378L16.0113 42.7629L27.6614 35.2166L27.4776 34.8001ZM27.0734 33.5751L20.4336 37.8627L19.3066 39.0633L27.2571 33.9916L27.0734 33.5751ZM26.6568 32.35L23.7167 34.2244L22.651 35.4494L26.8528 32.6808L26.6568 32.35ZM28.3474 37.2747L10.5843 48.8146L9.5063 50.0396L28.4821 37.6667L28.3474 37.2747ZM28.7517 38.4997L7.30123 52.4652L6.2232 53.6902L28.8864 38.8918L28.7517 38.4997ZM29.1069 39.786L4.01813 56.1158L2.92784 57.3408L29.2907 40.1903L29.1069 39.786ZM32.488 50.0151L32.4145 49.7946L11.9564 63.1108L12.5321 63.2333L32.5493 50.1989L32.488 50.0151ZM26.3873 31.2598L25.9341 31.762L26.4486 31.4313L26.3873 31.2598ZM36.9104 63.6253L31.3365 67.2391L31.9245 67.3616L37.0452 64.0295L36.9104 63.6253ZM37.3147 64.8503L33.1005 67.6067L33.6763 67.7292L37.4494 65.2791L37.3147 64.8503ZM36.5061 62.4002L29.5847 66.8594L30.1604 66.9819L36.6409 62.78L36.5061 62.4002ZM36.6164 68.3784L37.1922 68.5009L38.258 67.8149L38.1232 67.3984L36.6164 68.3784ZM38.5397 68.6479L38.3805 68.7582H38.5765L38.5397 68.6479ZM36.0896 61.0772L27.7349 66.4674L28.3106 66.5899L36.1999 61.457L36.0896 61.0772ZM37.6822 66.1244L34.8646 67.9864L35.4404 68.1089L37.8904 66.5409L37.6822 66.1244ZM32.782 51.0441L13.6714 63.4783L14.2472 63.6008L32.9535 51.4484L32.782 51.0441ZM34.0071 54.8173L18.9391 64.6176L19.5149 64.7401L34.2153 55.2215L34.0071 54.8173ZM33.5906 53.5922L17.1873 64.2256L17.7631 64.3481L33.7743 53.9475L33.5906 53.5922ZM33.1863 52.3672L15.4232 63.858L15.999 63.9805L33.3578 52.6979L33.1863 52.3672ZM35.2321 58.4924L24.2068 65.7201L24.7825 65.8426L35.3791 58.9579L35.2321 58.4924ZM35.6364 59.7174L25.9708 66.0999L26.5466 66.2224L35.7956 60.2074L35.6364 59.7174ZM34.8278 57.2673L22.455 65.3526L23.0307 65.4751L34.9871 57.7083L34.8278 57.2673ZM34.4236 56.0423L20.7031 64.9728L21.2789 65.0953L34.5828 56.5201L34.4236 56.0423Z" fill="url(#paint7_linear_5223_4164)"/>
<path d="M254.122 195.563C253.863 195.42 253.568 195.358 253.273 195.383C252.979 195.409 252.699 195.521 252.468 195.706C252.238 195.89 252.067 196.139 251.978 196.42C251.888 196.702 251.884 197.004 251.967 197.288C252.049 197.571 252.213 197.824 252.439 198.015C252.664 198.205 252.942 198.325 253.235 198.358C253.529 198.391 253.826 198.336 254.088 198.2C254.35 198.065 254.567 197.855 254.71 197.596C254.899 197.248 254.943 196.839 254.833 196.459C254.723 196.078 254.468 195.756 254.122 195.563ZM246.502 185.101C246.243 184.958 245.948 184.896 245.654 184.922C245.359 184.947 245.079 185.059 244.849 185.244C244.618 185.428 244.447 185.677 244.358 185.959C244.269 186.24 244.265 186.542 244.347 186.826C244.429 187.109 244.593 187.363 244.819 187.553C245.045 187.743 245.322 187.863 245.615 187.896C245.909 187.929 246.206 187.874 246.468 187.739C246.731 187.603 246.947 187.393 247.09 187.134C247.185 186.962 247.246 186.773 247.268 186.578C247.29 186.382 247.273 186.184 247.218 185.995C247.164 185.806 247.072 185.63 246.949 185.477C246.826 185.323 246.675 185.195 246.502 185.101ZM247.2 191.716C246.94 191.571 246.642 191.507 246.345 191.532C246.048 191.556 245.765 191.669 245.531 191.854C245.298 192.04 245.125 192.291 245.034 192.575C244.943 192.859 244.939 193.163 245.021 193.45C245.104 193.736 245.269 193.992 245.497 194.184C245.725 194.377 246.004 194.497 246.3 194.531C246.597 194.564 246.896 194.509 247.161 194.372C247.426 194.235 247.644 194.023 247.788 193.762C247.883 193.587 247.941 193.394 247.96 193.197C247.98 192.999 247.96 192.799 247.902 192.609C247.844 192.419 247.749 192.242 247.622 192.088C247.495 191.935 247.34 191.809 247.164 191.716H247.2ZM260.345 192.769C260.173 192.674 259.984 192.613 259.788 192.59C259.592 192.568 259.394 192.584 259.205 192.638C259.015 192.692 258.838 192.783 258.684 192.905C258.53 193.028 258.401 193.179 258.305 193.351C258.21 193.523 258.149 193.713 258.126 193.908C258.104 194.104 258.12 194.302 258.174 194.492C258.228 194.681 258.319 194.858 258.441 195.012C258.564 195.167 258.715 195.295 258.887 195.391C259.235 195.584 259.645 195.632 260.028 195.522C260.41 195.413 260.734 195.157 260.927 194.809C261.12 194.461 261.168 194.051 261.058 193.669C260.949 193.286 260.693 192.963 260.345 192.769ZM253.424 188.935C253.165 188.794 252.87 188.733 252.577 188.759C252.283 188.785 252.004 188.898 251.774 189.082C251.544 189.266 251.374 189.515 251.285 189.796C251.196 190.076 251.191 190.377 251.273 190.661C251.354 190.944 251.518 191.197 251.742 191.387C251.967 191.578 252.243 191.698 252.536 191.732C252.828 191.766 253.125 191.713 253.387 191.58C253.65 191.446 253.867 191.238 254.012 190.981C254.109 190.808 254.171 190.618 254.194 190.421C254.217 190.225 254.2 190.025 254.146 189.835C254.091 189.645 253.999 189.467 253.875 189.313C253.751 189.158 253.598 189.03 253.424 188.935ZM248.266 198.245C247.919 198.052 247.508 198.005 247.126 198.114C246.743 198.223 246.42 198.48 246.227 198.827C246.033 199.175 245.986 199.585 246.095 199.968C246.204 200.35 246.461 200.674 246.808 200.867C246.981 200.963 247.17 201.024 247.366 201.046C247.561 201.069 247.759 201.052 247.949 200.998C248.138 200.944 248.315 200.854 248.469 200.731C248.624 200.609 248.752 200.457 248.848 200.285C248.944 200.113 249.005 199.924 249.027 199.728C249.05 199.532 249.034 199.334 248.98 199.145C248.926 198.955 248.835 198.778 248.712 198.624C248.59 198.47 248.438 198.341 248.266 198.245ZM248.964 204.861C248.706 204.718 248.41 204.656 248.116 204.681C247.822 204.707 247.542 204.819 247.311 205.004C247.08 205.188 246.91 205.437 246.82 205.719C246.731 206 246.727 206.302 246.809 206.586C246.891 206.869 247.055 207.122 247.281 207.313C247.507 207.503 247.784 207.623 248.078 207.656C248.371 207.689 248.668 207.634 248.931 207.498C249.193 207.363 249.409 207.153 249.552 206.894C249.648 206.722 249.708 206.533 249.73 206.337C249.752 206.142 249.735 205.944 249.681 205.755C249.626 205.566 249.535 205.39 249.412 205.237C249.289 205.083 249.137 204.955 248.964 204.861ZM242.043 201.026C241.695 200.833 241.285 200.786 240.903 200.895C240.52 201.004 240.197 201.26 240.003 201.608C239.81 201.956 239.763 202.366 239.872 202.748C239.981 203.131 240.238 203.454 240.585 203.648C240.757 203.743 240.947 203.804 241.142 203.827C241.338 203.849 241.536 203.833 241.726 203.779C241.915 203.725 242.092 203.634 242.246 203.512C242.4 203.39 242.529 203.238 242.625 203.066C242.721 202.894 242.782 202.704 242.804 202.509C242.827 202.313 242.81 202.115 242.756 201.926C242.702 201.736 242.612 201.559 242.489 201.405C242.367 201.251 242.215 201.122 242.043 201.026ZM241.357 194.399C241.097 194.252 240.8 194.186 240.502 194.209C240.205 194.231 239.921 194.342 239.686 194.526C239.451 194.71 239.277 194.96 239.184 195.244C239.092 195.527 239.085 195.832 239.166 196.119C239.247 196.406 239.411 196.663 239.638 196.857C239.865 197.051 240.144 197.173 240.441 197.208C240.737 197.242 241.037 197.188 241.303 197.053C241.568 196.917 241.788 196.705 241.933 196.445C242.123 196.096 242.17 195.687 242.062 195.304C241.955 194.922 241.701 194.597 241.357 194.399ZM255.188 202.08C254.929 201.937 254.634 201.875 254.339 201.901C254.045 201.926 253.765 202.038 253.534 202.223C253.304 202.407 253.133 202.656 253.043 202.938C252.954 203.219 252.95 203.521 253.032 203.805C253.114 204.089 253.279 204.342 253.504 204.532C253.73 204.723 254.007 204.842 254.301 204.875C254.595 204.908 254.891 204.853 255.154 204.718C255.416 204.582 255.633 204.372 255.776 204.113C255.965 203.765 256.009 203.356 255.899 202.976C255.789 202.595 255.533 202.273 255.188 202.08ZM236.886 210.324C236.625 210.18 236.327 210.115 236.03 210.14C235.733 210.165 235.45 210.277 235.216 210.463C234.983 210.648 234.81 210.899 234.719 211.183C234.628 211.467 234.624 211.771 234.706 212.058C234.789 212.345 234.954 212.6 235.182 212.793C235.41 212.985 235.689 213.106 235.986 213.139C236.282 213.172 236.581 213.117 236.846 212.98C237.111 212.843 237.33 212.631 237.474 212.37C237.666 212.021 237.713 211.609 237.603 211.226C237.492 210.842 237.235 210.518 236.886 210.324ZM236.2 203.709C235.941 203.567 235.645 203.504 235.351 203.53C235.057 203.555 234.777 203.667 234.546 203.852C234.315 204.037 234.145 204.285 234.055 204.567C233.966 204.849 233.962 205.15 234.044 205.434C234.126 205.718 234.291 205.971 234.516 206.161C234.742 206.352 235.019 206.471 235.313 206.504C235.606 206.537 235.903 206.482 236.166 206.347C236.428 206.211 236.645 206.001 236.788 205.743C236.977 205.394 237.021 204.986 236.911 204.605C236.801 204.225 236.545 203.903 236.2 203.709ZM243.807 214.171C243.636 214.073 243.448 214.011 243.252 213.987C243.057 213.964 242.859 213.979 242.67 214.033C242.48 214.086 242.304 214.177 242.15 214.3C241.996 214.422 241.868 214.574 241.774 214.747C241.629 215.005 241.565 215.3 241.588 215.594C241.612 215.889 241.722 216.17 241.905 216.402C242.089 216.634 242.337 216.806 242.618 216.897C242.899 216.989 243.201 216.994 243.485 216.914C243.77 216.833 244.024 216.67 244.216 216.445C244.407 216.22 244.528 215.943 244.563 215.65C244.597 215.356 244.544 215.059 244.409 214.796C244.275 214.532 244.065 214.315 243.807 214.171ZM250.03 211.378C249.683 211.184 249.272 211.137 248.89 211.246C248.507 211.355 248.184 211.612 247.991 211.96C247.797 212.307 247.75 212.717 247.859 213.1C247.968 213.483 248.225 213.806 248.572 213.999C248.745 214.095 248.934 214.156 249.13 214.178C249.325 214.201 249.523 214.185 249.713 214.131C249.902 214.077 250.079 213.986 250.233 213.864C250.388 213.741 250.516 213.59 250.612 213.417C250.708 213.245 250.769 213.056 250.791 212.86C250.814 212.665 250.798 212.466 250.744 212.277C250.69 212.088 250.599 211.911 250.476 211.756C250.354 211.602 250.202 211.473 250.03 211.378ZM243.109 207.543C242.85 207.401 242.555 207.339 242.26 207.364C241.966 207.39 241.686 207.502 241.455 207.686C241.225 207.871 241.054 208.12 240.965 208.401C240.875 208.683 240.871 208.985 240.953 209.268C241.035 209.552 241.2 209.805 241.426 209.996C241.651 210.186 241.929 210.305 242.222 210.338C242.516 210.371 242.812 210.317 243.075 210.181C243.337 210.046 243.554 209.835 243.697 209.577C243.794 209.405 243.855 209.216 243.878 209.02C243.901 208.824 243.885 208.626 243.83 208.437C243.775 208.247 243.683 208.071 243.559 207.917C243.435 207.764 243.282 207.637 243.109 207.543ZM231.042 213.007C230.782 212.86 230.485 212.794 230.187 212.817C229.89 212.84 229.606 212.95 229.371 213.134C229.136 213.319 228.962 213.568 228.869 213.852C228.777 214.136 228.77 214.44 228.851 214.728C228.932 215.015 229.096 215.272 229.323 215.465C229.55 215.659 229.829 215.781 230.126 215.816C230.422 215.851 230.722 215.797 230.988 215.661C231.253 215.525 231.473 215.313 231.618 215.053C231.812 214.705 231.86 214.295 231.752 213.911C231.644 213.528 231.389 213.203 231.042 213.007ZM244.873 220.676C244.525 220.504 244.125 220.473 243.755 220.588C243.385 220.704 243.074 220.958 242.887 221.297C242.699 221.636 242.649 222.034 242.748 222.409C242.846 222.784 243.085 223.106 243.415 223.31C243.589 223.416 243.782 223.487 243.983 223.517C244.185 223.547 244.391 223.536 244.588 223.484C244.785 223.432 244.969 223.341 245.13 223.216C245.291 223.091 245.425 222.934 245.523 222.756C245.622 222.578 245.684 222.382 245.704 222.179C245.725 221.976 245.704 221.771 245.643 221.577C245.582 221.382 245.483 221.202 245.35 221.047C245.218 220.893 245.056 220.766 244.873 220.676ZM237.951 216.841C237.604 216.67 237.204 216.638 236.834 216.754C236.464 216.87 236.153 217.123 235.965 217.462C235.778 217.802 235.728 218.2 235.826 218.575C235.925 218.95 236.164 219.272 236.494 219.475C236.667 219.582 236.86 219.653 237.062 219.683C237.264 219.713 237.469 219.701 237.666 219.65C237.863 219.598 238.048 219.507 238.209 219.382C238.369 219.257 238.503 219.1 238.602 218.922C238.701 218.744 238.762 218.547 238.783 218.344C238.803 218.142 238.783 217.937 238.722 217.742C238.661 217.548 238.561 217.368 238.429 217.213C238.296 217.058 238.134 216.932 237.951 216.841Z" fill="url(#paint8_linear_5223_4164)"/>
<path d="M97.2223 260.674L112.351 279.846L111.224 280.728L96.9773 262.67L79.0182 276.697L78.1484 275.57L97.2223 260.674ZM79.6675 263.687L80.5495 264.814L98.5086 250.775L112.744 268.845L113.871 267.963L98.7413 248.779L79.6675 263.687ZM81.1253 251.792L82.0073 252.919L99.9664 238.892L114.201 256.95L115.328 256.068L100.199 236.883L81.1253 251.792ZM82.5831 239.897L83.4651 241.024L101.424 226.997L115.671 245.054L116.786 244.172L101.669 224.988L82.5831 239.897Z" fill="url(#paint9_linear_5223_4164)"/>
<path d="M148.647 3.2194C148.472 3.39497 148.264 3.53426 148.035 3.6293C147.806 3.72434 147.56 3.77326 147.312 3.77326C147.064 3.77326 146.818 3.72434 146.589 3.6293C146.36 3.53426 146.152 3.39497 145.977 3.2194C145.625 2.86392 145.428 2.38411 145.428 1.88411C145.428 1.38412 145.625 0.904299 145.977 0.54882C146.332 0.19721 146.812 0 147.312 0C147.812 0 148.292 0.19721 148.647 0.54882C148.823 0.72405 148.962 0.932184 149.057 1.16131C149.152 1.39044 149.201 1.63606 149.201 1.88411C149.201 2.13217 149.152 2.37778 149.057 2.60691C148.962 2.83604 148.823 3.04417 148.647 3.2194ZM155.703 7.80105C155.528 7.62548 155.32 7.48618 155.091 7.39115C154.862 7.29611 154.616 7.24719 154.368 7.24719C154.12 7.24719 153.874 7.29611 153.645 7.39115C153.416 7.48618 153.208 7.62548 153.033 7.80105C152.681 8.15653 152.484 8.63634 152.484 9.13634C152.484 9.63633 152.681 10.1161 153.033 10.4716C153.388 10.8232 153.868 11.0204 154.368 11.0204C154.868 11.0204 155.348 10.8232 155.703 10.4716C155.879 10.2964 156.018 10.0883 156.113 9.85914C156.208 9.63001 156.257 9.38439 156.257 9.13634C156.257 8.88828 156.208 8.64266 156.113 8.41354C156.018 8.18441 155.879 7.97628 155.703 7.80105ZM162.711 15.0655C162.535 14.89 162.327 14.7507 162.098 14.6556C161.869 14.5606 161.623 14.5117 161.375 14.5117C161.127 14.5117 160.882 14.5606 160.653 14.6556C160.423 14.7507 160.215 14.89 160.04 15.0655C159.688 15.421 159.491 15.9008 159.491 16.4008C159.491 16.9008 159.688 17.3806 160.04 17.7361C160.396 18.0877 160.875 18.2849 161.375 18.2849C161.875 18.2849 162.355 18.0877 162.711 17.7361C162.886 17.5609 163.025 17.3527 163.121 17.1236C163.216 16.8945 163.264 16.6489 163.264 16.4008C163.264 16.1528 163.216 15.9071 163.121 15.678C163.025 15.4489 162.886 15.2408 162.711 15.0655ZM169.718 22.3178C169.362 21.9661 168.883 21.7689 168.383 21.7689C167.883 21.7689 167.403 21.9661 167.047 22.3178C166.696 22.6732 166.498 23.1531 166.498 23.653C166.498 24.153 166.696 24.6329 167.047 24.9883C167.403 25.3437 167.886 25.5432 168.389 25.5432C168.892 25.5432 169.374 25.3437 169.73 24.9883C170.08 24.6312 170.275 24.1505 170.273 23.6505C170.27 23.1505 170.071 22.6716 169.718 22.3178ZM174.005 32.2038C174.363 32.5562 174.845 32.7537 175.347 32.7537C175.849 32.7537 176.331 32.5562 176.688 32.2038C176.865 32.0305 177.005 31.8236 177.101 31.5954C177.197 31.3672 177.246 31.1222 177.246 30.8746C177.246 30.6271 177.197 30.3821 177.101 30.1539C177.005 29.9257 176.865 29.7188 176.688 29.5455C176.513 29.3699 176.305 29.2306 176.076 29.1356C175.847 29.0405 175.601 28.9916 175.353 28.9916C175.105 28.9916 174.859 29.0405 174.63 29.1356C174.401 29.2306 174.193 29.3699 174.018 29.5455C173.668 29.8988 173.471 30.3751 173.469 30.8721C173.467 31.3692 173.659 31.8473 174.005 32.2038ZM141.444 7.55604C141.088 7.20443 140.609 7.00722 140.109 7.00722C139.609 7.00722 139.129 7.20443 138.773 7.55604C138.422 7.91152 138.225 8.39134 138.225 8.89133C138.225 9.39133 138.422 9.87114 138.773 10.2266C139.129 10.5782 139.609 10.7754 140.109 10.7754C140.609 10.7754 141.088 10.5782 141.444 10.2266C141.796 9.87114 141.993 9.39133 141.993 8.89133C141.993 8.39134 141.796 7.91152 141.444 7.55604ZM148.451 14.8083C148.276 14.6327 148.068 14.4934 147.839 14.3984C147.61 14.3033 147.364 14.2544 147.116 14.2544C146.868 14.2544 146.622 14.3033 146.393 14.3984C146.164 14.4934 145.956 14.6327 145.781 14.8083C145.605 14.9825 145.466 15.1896 145.371 15.4177C145.277 15.6458 145.228 15.8904 145.228 16.1374C145.228 16.3845 145.277 16.6291 145.371 16.8572C145.466 17.0853 145.605 17.2924 145.781 17.4666C145.956 17.6422 146.164 17.7815 146.393 17.8765C146.622 17.9715 146.868 18.0205 147.116 18.0205C147.364 18.0205 147.61 17.9715 147.839 17.8765C148.068 17.7815 148.276 17.6422 148.451 17.4666C148.799 17.1117 148.994 16.6345 148.994 16.1374C148.994 15.6404 148.799 15.1632 148.451 14.8083ZM155.458 22.0727C155.283 21.8972 155.075 21.7579 154.846 21.6628C154.617 21.5678 154.371 21.5189 154.123 21.5189C153.875 21.5189 153.629 21.5678 153.4 21.6628C153.171 21.7579 152.963 21.8972 152.788 22.0727C152.436 22.4282 152.239 22.908 152.239 23.408C152.239 23.908 152.436 24.3878 152.788 24.7433C153.143 25.0949 153.623 25.2922 154.123 25.2922C154.623 25.2922 155.103 25.0949 155.458 24.7433C155.81 24.3878 156.007 23.908 156.007 23.408C156.007 22.908 155.81 22.4282 155.458 22.0727ZM162.466 29.325C162.11 28.9734 161.63 28.7762 161.13 28.7762C160.63 28.7762 160.151 28.9734 159.795 29.325C159.443 29.6805 159.246 30.1603 159.246 30.6603C159.246 31.1603 159.443 31.6401 159.795 31.9956C159.97 32.1711 160.178 32.3104 160.408 32.4055C160.637 32.5005 160.882 32.5494 161.13 32.5494C161.378 32.5494 161.624 32.5005 161.853 32.4055C162.082 32.3104 162.29 32.1711 162.466 31.9956C162.817 31.6401 163.014 31.1603 163.014 30.6603C163.014 30.1603 162.817 29.6805 162.466 29.325ZM169.473 36.5772C169.298 36.4016 169.089 36.2623 168.86 36.1673C168.631 36.0723 168.386 36.0233 168.138 36.0233C167.889 36.0233 167.644 36.0723 167.415 36.1673C167.186 36.2623 166.977 36.4016 166.802 36.5772C166.451 36.9327 166.253 37.4125 166.253 37.9125C166.253 38.4125 166.451 38.8923 166.802 39.2478C166.977 39.4234 167.186 39.5626 167.415 39.6577C167.644 39.7527 167.889 39.8016 168.138 39.8016C168.386 39.8016 168.631 39.7527 168.86 39.6577C169.089 39.5626 169.298 39.4234 169.473 39.2478C169.824 38.8923 170.022 38.4125 170.022 37.9125C170.022 37.4125 169.824 36.9327 169.473 36.5772ZM134.179 14.5265C133.824 14.1749 133.344 13.9777 132.844 13.9777C132.344 13.9777 131.864 14.1749 131.509 14.5265C131.157 14.882 130.96 15.3618 130.96 15.8618C130.96 16.3618 131.157 16.8416 131.509 17.1971C131.683 17.3723 131.89 17.5113 132.118 17.6062C132.346 17.7011 132.591 17.7499 132.838 17.7499C133.085 17.7499 133.33 17.7011 133.558 17.6062C133.786 17.5113 133.993 17.3723 134.167 17.1971C134.515 16.8479 134.712 16.3757 134.714 15.8827C134.716 15.3897 134.524 14.9157 134.179 14.5633V14.5265ZM141.199 21.7787C141.024 21.6032 140.816 21.4639 140.586 21.3688C140.357 21.2738 140.112 21.2249 139.864 21.2249C139.616 21.2249 139.37 21.2738 139.141 21.3688C138.912 21.4639 138.704 21.6032 138.528 21.7787C138.353 21.954 138.213 22.1621 138.118 22.3912C138.023 22.6204 137.975 22.866 137.975 23.114C137.975 23.3621 138.023 23.6077 138.118 23.8368C138.213 24.066 138.353 24.2741 138.528 24.4493C138.704 24.6249 138.912 24.7642 139.141 24.8592C139.37 24.9543 139.616 25.0032 139.864 25.0032C140.112 25.0032 140.357 24.9543 140.586 24.8592C140.816 24.7642 141.024 24.6249 141.199 24.4493C141.54 24.0955 141.73 23.6235 141.73 23.1324C141.73 22.6413 141.54 22.1693 141.199 21.8155V21.7787ZM148.206 29.0922C148.028 28.9122 147.817 28.7693 147.583 28.6717C147.35 28.5742 147.099 28.524 146.846 28.524C146.593 28.524 146.343 28.5742 146.109 28.6717C145.876 28.7693 145.664 28.9122 145.487 29.0922C145.135 29.4477 144.938 29.9275 144.938 30.4275C144.938 30.9275 145.135 31.4073 145.487 31.7628C145.842 32.1144 146.322 32.3116 146.822 32.3116C147.322 32.3116 147.802 32.1144 148.157 31.7628C148.515 31.4138 148.721 30.9376 148.731 30.4376C148.74 29.9376 148.551 29.4541 148.206 29.0922ZM155.213 36.3444C154.858 35.9928 154.378 35.7956 153.878 35.7956C153.378 35.7956 152.898 35.9928 152.543 36.3444C152.191 36.6999 151.994 37.1797 151.994 37.6797C151.994 38.1797 152.191 38.6595 152.543 39.015C152.718 39.1906 152.926 39.3299 153.155 39.4249C153.384 39.52 153.63 39.5689 153.878 39.5689C154.126 39.5689 154.372 39.52 154.601 39.4249C154.83 39.3299 155.038 39.1906 155.213 39.015C155.569 38.659 155.768 38.1766 155.768 37.6736C155.768 37.1706 155.569 36.6882 155.213 36.3322V36.3444ZM162.221 43.6089C161.957 43.3454 161.62 43.1661 161.255 43.0936C160.889 43.0211 160.51 43.0587 160.165 43.2016C159.821 43.3445 159.526 43.5863 159.319 43.8965C159.112 44.2066 159.001 44.5712 159.001 44.9442C159.001 45.3172 159.112 45.6818 159.319 45.992C159.526 46.3021 159.821 46.5439 160.165 46.6868C160.51 46.8297 160.889 46.8673 161.255 46.7948C161.62 46.7223 161.957 46.543 162.221 46.2795C162.398 46.1041 162.539 45.8952 162.635 45.6649C162.731 45.4346 162.781 45.1876 162.781 44.9381C162.781 44.6886 162.731 44.4415 162.635 44.2113C162.539 43.981 162.398 43.7721 162.221 43.5967V43.6089ZM126.927 21.5582C126.572 21.2066 126.092 21.0094 125.592 21.0094C125.092 21.0094 124.612 21.2066 124.257 21.5582C123.905 21.9137 123.708 22.3935 123.708 22.8935C123.708 23.3935 123.905 23.8733 124.257 24.2288C124.432 24.4044 124.64 24.5437 124.869 24.6387C125.098 24.7337 125.344 24.7827 125.592 24.7827C125.84 24.7827 126.086 24.7337 126.315 24.6387C126.544 24.5437 126.752 24.4044 126.927 24.2288C127.278 23.8754 127.475 23.3976 127.475 22.8996C127.475 22.4017 127.278 21.9239 126.927 21.5705V21.5582ZM133.934 28.8105C133.579 28.4588 133.099 28.2616 132.599 28.2616C132.099 28.2616 131.619 28.4588 131.264 28.8105C130.912 29.1659 130.715 29.6458 130.715 30.1458C130.715 30.6457 130.912 31.1256 131.264 31.481C131.619 31.8327 132.099 32.0299 132.599 32.0299C133.099 32.0299 133.579 31.8327 133.934 31.481C134.285 31.1276 134.482 30.6499 134.482 30.1519C134.482 29.6539 134.285 29.1761 133.934 28.8227V28.8105ZM140.942 36.0749C140.766 35.8994 140.558 35.7601 140.329 35.665C140.1 35.57 139.854 35.5211 139.606 35.5211C139.358 35.5211 139.113 35.57 138.884 35.665C138.654 35.7601 138.446 35.8994 138.271 36.0749C137.919 36.4304 137.722 36.9102 137.722 37.4102C137.722 37.9102 137.919 38.39 138.271 38.7455C138.627 39.0971 139.106 39.2943 139.606 39.2943C140.106 39.2943 140.586 39.0971 140.942 38.7455C141.293 38.3921 141.489 37.9143 141.489 37.4164C141.489 36.9184 141.293 36.4406 140.942 36.0872V36.0749ZM147.937 43.3394C147.771 43.1376 147.565 42.9725 147.332 42.8543C147.1 42.7362 146.845 42.6677 146.584 42.6531C146.323 42.6385 146.062 42.6782 145.818 42.7697C145.573 42.8611 145.35 43.0024 145.163 43.1844C144.976 43.3665 144.829 43.5854 144.731 43.8273C144.632 44.0692 144.586 44.3289 144.593 44.5899C144.6 44.8509 144.662 45.1075 144.773 45.3435C144.885 45.5795 145.044 45.7898 145.242 45.961C145.407 46.1628 145.613 46.3279 145.846 46.4461C146.079 46.5642 146.334 46.6327 146.594 46.6473C146.855 46.6619 147.116 46.6222 147.36 46.5307C147.605 46.4393 147.828 46.298 148.015 46.116C148.202 45.9339 148.349 45.715 148.448 45.4731C148.546 45.2312 148.593 44.9715 148.585 44.7105C148.578 44.4495 148.516 44.1929 148.405 43.9569C148.293 43.7209 148.134 43.5106 147.937 43.3394ZM154.944 50.5916C154.679 50.324 154.341 50.1411 153.972 50.0661C153.603 49.9912 153.22 50.0276 152.872 50.1707C152.524 50.3138 152.226 50.5571 152.017 50.8699C151.807 51.1826 151.695 51.5505 151.695 51.9269C151.695 52.3034 151.807 52.6713 152.017 52.984C152.226 53.2967 152.524 53.5401 152.872 53.6832C153.22 53.8263 153.603 53.8627 153.972 53.7877C154.341 53.7128 154.679 53.5299 154.944 53.2622C155.297 52.9084 155.497 52.4295 155.499 51.9295C155.501 51.4295 155.306 50.9487 154.956 50.5916H154.944ZM119.663 28.5409C119.307 28.1893 118.827 27.9921 118.327 27.9921C117.827 27.9921 117.348 28.1893 116.992 28.5409C116.641 28.8964 116.443 29.3762 116.443 29.8762C116.443 30.3762 116.641 30.8561 116.992 31.2115C117.167 31.3871 117.376 31.5264 117.605 31.6214C117.834 31.7165 118.079 31.7654 118.327 31.7654C118.576 31.7654 118.821 31.7165 119.05 31.6214C119.279 31.5264 119.488 31.3871 119.663 31.2115C120.005 30.8593 120.197 30.3882 120.2 29.8971C120.202 29.406 120.014 28.9331 119.675 28.5777L119.663 28.5409ZM126.682 35.8299C126.327 35.4783 125.847 35.2811 125.347 35.2811C124.847 35.2811 124.367 35.4783 124.012 35.8299C123.836 36.0052 123.697 36.2133 123.602 36.4424C123.507 36.6715 123.458 36.9172 123.458 37.1652C123.458 37.4133 123.507 37.6589 123.602 37.888C123.697 38.1171 123.836 38.3253 124.012 38.5005C124.187 38.6761 124.395 38.8154 124.624 38.9104C124.853 39.0054 125.099 39.0544 125.347 39.0544C125.595 39.0544 125.841 39.0054 126.07 38.9104C126.299 38.8154 126.507 38.6761 126.682 38.5005C127.034 38.145 127.231 37.6652 127.231 37.1652C127.231 36.6652 127.034 36.1854 126.682 35.8299ZM133.689 43.0944C133.425 42.8309 133.089 42.6516 132.723 42.5791C132.358 42.5066 131.978 42.5442 131.634 42.6871C131.289 42.83 130.995 43.0718 130.788 43.382C130.581 43.6921 130.47 44.0567 130.47 44.4297C130.47 44.8027 130.581 45.1673 130.788 45.4774C130.995 45.7876 131.289 46.0294 131.634 46.1723C131.978 46.3152 132.358 46.3528 132.723 46.2803C133.089 46.2078 133.425 46.0285 133.689 45.765C133.865 45.5898 134.004 45.3816 134.099 45.1525C134.194 44.9234 134.243 44.6778 134.243 44.4297C134.243 44.1816 134.194 43.936 134.099 43.7069C134.004 43.4778 133.865 43.2696 133.689 43.0944ZM140.697 50.3466C140.433 50.0832 140.097 49.9038 139.731 49.8313C139.365 49.7589 138.986 49.7964 138.641 49.9393C138.297 50.0822 138.002 50.324 137.795 50.6342C137.588 50.9444 137.477 51.309 137.477 51.6819C137.477 52.0549 137.588 52.4195 137.795 52.7297C138.002 53.0398 138.297 53.2816 138.641 53.4245C138.986 53.5674 139.365 53.605 139.731 53.5325C140.097 53.46 140.433 53.2807 140.697 53.0172C140.872 52.842 141.012 52.6339 141.107 52.4047C141.202 52.1756 141.251 51.93 141.251 51.6819C141.251 51.4339 141.202 51.1883 141.107 50.9591C141.012 50.73 140.872 50.5219 140.697 50.3466ZM147.704 57.5989C147.438 57.333 147.1 57.1518 146.732 57.0782C146.363 57.0047 145.981 57.0421 145.634 57.1857C145.287 57.3293 144.99 57.5727 144.781 57.885C144.573 58.1973 144.461 58.5646 144.461 58.9403C144.461 59.316 144.573 59.6832 144.781 59.9956C144.99 60.3079 145.287 60.5513 145.634 60.6949C145.981 60.8385 146.363 60.8759 146.732 60.8023C147.1 60.7288 147.438 60.5476 147.704 60.2817C148.059 59.9257 148.259 59.4433 148.259 58.9403C148.259 58.4373 148.059 57.9549 147.704 57.5989Z" fill="url(#paint10_linear_5223_4164)"/>
<path d="M54.5264 166.786L54.1344 167.815L22.6387 155.724L23.0307 154.695L54.5264 166.786ZM23.3982 159.84L50.8146 170.364L51.2066 169.335L23.7902 158.811L23.3982 159.84ZM24.17 163.957L47.4457 172.912L47.85 171.883L24.5742 162.928L24.17 163.957ZM24.9295 168.073L44.1626 175.423L44.5546 174.382L25.3215 167.031L24.9295 168.073ZM25.689 172.189L40.8427 178.008L41.2348 176.967L26.0933 171.197L25.689 172.189ZM26.4608 176.305L37.4861 180.544L37.8904 179.515L26.8651 175.276L26.4608 176.305ZM27.2203 180.421L34.1908 183.092L34.5828 182.063L27.6246 179.392L27.2203 180.421ZM27.9921 184.537L30.8709 185.64L31.2629 184.611L28.3841 183.508L27.9921 184.537Z" fill="url(#paint11_linear_5223_4164)"/>
<path d="M214.7 26.1523L189.207 48.203L225.774 58.0033L214.7 26.1523ZM213.144 31.9713L220.495 53.1032L196.226 46.5982L213.144 31.9713Z" fill="url(#paint12_linear_5223_4164)"/>
<path d="M396.069 118.643L360.959 140.571L397.514 160L396.069 118.643ZM395.628 119.476L397.024 159.24L361.89 140.571L395.628 119.476ZM394.611 121.399L364.071 140.485L395.922 157.391L394.611 121.399ZM394.17 122.195L395.395 156.57L365.002 140.448L394.17 122.195ZM393.153 124.119L367.219 140.375L394.17 154.757L393.153 124.119ZM392.712 124.939L393.717 153.936L368.113 140.314L392.712 124.939ZM391.72 126.887L370.282 140.265L392.577 152.111L391.72 126.887ZM391.279 127.708L392.099 151.327L371.274 140.228L391.279 127.708ZM390.262 129.631L373.344 140.154L390.874 149.477L390.262 129.631ZM389.821 130.464L390.495 148.681L374.385 140.105L389.821 130.464ZM388.792 132.375L376.541 140.044L389.27 146.843L388.792 132.375ZM388.363 133.208L388.804 146.047L377.46 140.007L388.363 133.208ZM387.334 135.132L379.641 139.934L387.628 144.246L387.334 135.132ZM386.893 135.952L387.163 143.413L380.572 139.909L386.893 135.952Z" fill="url(#paint13_linear_5223_4164)"/>
<path d="M349.272 175.348L422.934 251.631L320.03 277.283L349.26 175.348M347.667 169.002L315.326 281.828L429.255 253.432L347.716 169.002H347.667Z" fill="url(#paint14_linear_5223_4164)"/>
<path d="M316.979 128.148L364.24 127.327L339.899 86.8027L316.979 128.148Z" fill="url(#paint15_linear_5223_4164)"/>
<path d="M13.3537 295.758L53.6085 303.574L53.2165 302.986L13.5865 295.293L13.3537 295.758ZM12.6677 297.18L53.2165 305.069L54.5273 304.971L54.3925 304.775L12.9004 296.714L12.6677 297.18ZM14.7503 292.916L51.1584 299.997L50.7664 299.409L14.9708 292.475L14.7503 292.916ZM14.052 294.337L52.3834 301.786L51.9792 301.198L14.2847 293.847L14.052 294.337ZM15.4363 291.495L49.9334 298.209L49.5291 297.621L15.6323 291.03L15.4363 291.495ZM16.8573 288.665L47.5935 294.631L47.1893 294.043L17.0901 288.2L16.8573 288.665ZM16.1713 290.087L48.7083 296.42L48.3163 295.832L16.3061 289.621L16.1713 290.087ZM9.93585 302.864L29.7202 306.71L30.9453 306.625H31.668L10.1809 302.447L9.93585 302.864ZM9.23758 304.285L23.8033 307.176L25.7388 307.029L9.43358 303.868L9.23758 304.285ZM8.55156 305.706L17.9599 307.531L19.8832 307.396L8.77206 305.24L8.55156 305.706ZM7.85328 307.127L12.0674 307.935L14.003 307.813L8.08604 306.661L7.85328 307.127ZM10.6219 301.443L35.6127 306.343L37.536 306.208L10.8546 301.026L10.6219 301.443ZM11.3201 300.022L41.4561 305.951L43.3794 305.816L11.5284 299.617L11.3201 300.022ZM11.9572 298.601L47.3118 305.473L49.2473 305.338L12.1777 298.135L11.9572 298.601ZM17.6168 286.987L17.4943 287.244L46.3195 292.843L45.9275 292.255L17.7516 286.767L17.6168 286.987ZM7.22852 308.278L8.06154 308.217L7.32652 308.082L7.22852 308.278ZM25.1508 271.527L32.9788 273.046L32.5746 272.458L25.4326 271.074L25.1508 271.527ZM25.8491 270.106L31.766 271.258L31.374 270.67L26.0696 269.641L25.8491 270.106ZM24.4648 272.936L34.1794 274.835L33.7874 274.247L24.6853 272.47L24.4648 272.936ZM29.365 267.681L28.9729 267.093L27.4662 266.799L27.2456 267.264L29.365 267.681ZM27.9317 265.843H28.1644L28.0174 265.635L27.9317 265.843ZM23.742 274.418L35.4657 276.697L35.0736 276.109L23.9625 273.953L23.742 274.418ZM26.5596 268.661L30.5777 269.432L30.1857 268.857L26.7801 268.195L26.5596 268.661ZM18.2049 285.811L45.1557 291.054L44.7514 290.466L18.4499 285.358L18.2049 285.811ZM20.2752 281.56L41.5051 285.676L41.1131 285.101L20.5324 281.095L20.2752 281.56ZM19.5769 282.981L42.7056 287.477L42.3136 286.889L19.8097 282.516L19.5769 282.981ZM18.8909 284.402L43.9184 289.303L43.5264 288.714L19.1359 283.9L18.8909 284.402ZM22.3577 277.297L37.879 280.311L37.487 279.723L22.5905 276.832L22.3577 277.297ZM23.0438 275.876L36.6784 278.522L36.2864 277.934L23.2765 275.411L23.0438 275.876ZM21.6595 278.718L39.0918 282.099L38.6998 281.511L21.8922 278.253L21.6595 278.718ZM20.9734 280.139L40.3168 283.9L39.9125 283.312L21.2062 279.637L20.9734 280.139Z" fill="url(#paint16_linear_5223_4164)"/>
</g>
<defs>
<linearGradient id="paint0_linear_5223_4164" x1="96.5231" y1="212.471" x2="60.3479" y2="207.386" gradientUnits="userSpaceOnUse">
<stop stop-color="#C9C9C9"/>
<stop offset="1" stop-color="white"/>
</linearGradient>
<linearGradient id="paint1_linear_5223_4164" x1="312.341" y1="58.0801" x2="239.401" y2="59.3533" gradientUnits="userSpaceOnUse">
<stop stop-color="#C9C9C9"/>
<stop offset="1" stop-color="white"/>
</linearGradient>
<linearGradient id="paint2_linear_5223_4164" x1="91.2943" y1="149.849" x2="64.4066" y2="33.3854" gradientUnits="userSpaceOnUse">
<stop stop-color="#C9C9C9"/>
<stop offset="1" stop-color="white"/>
</linearGradient>
<linearGradient id="paint3_linear_5223_4164" x1="319.113" y1="59.6156" x2="371.907" y2="3.00137" gradientUnits="userSpaceOnUse">
<stop stop-color="#C9C9C9"/>
<stop offset="1" stop-color="white"/>
</linearGradient>
<linearGradient id="paint4_linear_5223_4164" x1="250.047" y1="122.203" x2="112.227" y2="189.422" gradientUnits="userSpaceOnUse">
<stop stop-color="#C9C9C9"/>
<stop offset="1" stop-color="white"/>
</linearGradient>
<linearGradient id="paint5_linear_5223_4164" x1="276.303" y1="194.285" x2="293.111" y2="115.212" gradientUnits="userSpaceOnUse">
<stop stop-color="#C9C9C9"/>
<stop offset="1" stop-color="white"/>
</linearGradient>
<linearGradient id="paint6_linear_5223_4164" x1="123.309" y1="249.199" x2="88.6363" y2="277.277" gradientUnits="userSpaceOnUse">
<stop stop-color="#C9C9C9"/>
<stop offset="1" stop-color="white"/>
</linearGradient>
<linearGradient id="paint7_linear_5223_4164" x1="3.64197" y1="43.8959" x2="42.2262" y2="52.0972" gradientUnits="userSpaceOnUse">
<stop stop-color="#C9C9C9"/>
<stop offset="1" stop-color="white"/>
</linearGradient>
<linearGradient id="paint8_linear_5223_4164" x1="236.826" y1="199.689" x2="253.284" y2="208.811" gradientUnits="userSpaceOnUse">
<stop stop-color="#C9C9C9"/>
<stop offset="1" stop-color="white"/>
</linearGradient>
<linearGradient id="paint9_linear_5223_4164" x1="132.809" y1="280.394" x2="139.308" y2="226.777" gradientUnits="userSpaceOnUse">
<stop stop-color="#000644"/>
<stop offset="1" stop-color="#333980"/>
</linearGradient>
<linearGradient id="paint10_linear_5223_4164" x1="131.272" y1="14.8479" x2="161.924" y2="46.5894" gradientUnits="userSpaceOnUse">
<stop stop-color="#000644"/>
<stop offset="1" stop-color="#333980"/>
</linearGradient>
<linearGradient id="paint11_linear_5223_4164" x1="18.3037" y1="166.755" x2="49.8004" y2="178.845" gradientUnits="userSpaceOnUse">
<stop stop-color="#000644"/>
<stop offset="1" stop-color="#333980"/>
</linearGradient>
<linearGradient id="paint12_linear_5223_4164" x1="192.877" y1="34.7765" x2="229.441" y2="44.5737" gradientUnits="userSpaceOnUse">
<stop stop-color="#000644"/>
<stop offset="1" stop-color="#333980"/>
</linearGradient>
<linearGradient id="paint13_linear_5223_4164" x1="369.593" y1="124.63" x2="406.152" y2="144.069" gradientUnits="userSpaceOnUse">
<stop stop-color="#000644"/>
<stop offset="1" stop-color="#333980"/>
</linearGradient>
<linearGradient id="paint14_linear_5223_4164" x1="364.248" y1="295.258" x2="396.597" y2="182.446" gradientUnits="userSpaceOnUse">
<stop stop-color="#000644"/>
<stop offset="1" stop-color="#333980"/>
</linearGradient>
<linearGradient id="paint15_linear_5223_4164" x1="357.934" y1="97.0509" x2="335.009" y2="138.409" gradientUnits="userSpaceOnUse">
<stop stop-color="#000644"/>
<stop offset="1" stop-color="#333980"/>
</linearGradient>
<linearGradient id="paint16_linear_5223_4164" x1="25.0418" y1="333.193" x2="-1.48665" y2="293.874" gradientUnits="userSpaceOnUse">
<stop stop-color="#000644"/>
<stop offset="1" stop-color="#333980"/>
</linearGradient>
</defs>
</svg>
