<svg width="33" height="37" viewBox="0 0 33 37" fill="none" xmlns="http://www.w3.org/2000/svg">
<path d="M31.0863 0.828125L0.496094 19.9337L32.3458 36.8619L31.0863 0.828125ZM30.7021 1.55392L31.9189 36.2001L1.30726 19.9337L30.7021 1.55392ZM29.8162 3.22966L3.20714 19.859L30.9583 34.5884L29.8162 3.22966ZM29.4319 3.92344L30.4993 33.8733L4.01834 19.827L29.4319 3.92344ZM28.5461 5.59918L5.95024 19.7629L29.4319 32.2936L28.5461 5.59918ZM28.1618 6.31431L29.037 31.5785L6.72942 19.7096L28.1618 6.31431ZM27.2972 8.0114L8.61861 19.6669L28.0444 29.9881L27.2972 8.0114ZM26.913 8.72652L27.6281 29.305L9.48317 19.6348L26.913 8.72652ZM26.0271 10.4023L11.287 19.5708L26.5608 27.6933L26.0271 10.4023ZM25.6429 11.1281L26.2299 26.9996L12.1942 19.5281L25.6429 11.1281ZM24.7463 12.7931L14.0728 19.4747L25.1625 25.3985L24.7463 12.7931ZM24.3727 13.5189L24.7569 24.7048L14.8733 19.4427L24.3727 13.5189ZM23.4761 15.1947L16.7732 19.3787L23.7323 23.1357L23.4761 15.1947ZM23.0919 15.9098L23.3267 22.41L17.5844 19.3573L23.0919 15.9098Z" fill="url(#paint0_linear_5211_27349)"/>
<defs>
<linearGradient id="paint0_linear_5211_27349" x1="8.0185" y1="6.04511" x2="39.8721" y2="22.982" gradientUnits="userSpaceOnUse">
<stop stop-color="#000644"/>
<stop offset="1" stop-color="#333980"/>
</linearGradient>
</defs>
</svg>
